<?xml version="1.0" encoding="UTF-8" standalone="no"?>
<!DOCTYPE svg PUBLIC "-//W3C//DTD SVG 1.1//EN" "http://www.w3.org/Graphics/SVG/1.1/DTD/svg11.dtd">
<svg width="100%" height="100%" viewBox="0 0 940 259" version="1.1" xmlns="http://www.w3.org/2000/svg" xmlns:xlink="http://www.w3.org/1999/xlink" xml:space="preserve" xmlns:serif="http://www.serif.com/" style="fill-rule:evenodd;clip-rule:evenodd;stroke-linejoin:round;stroke-miterlimit:2;">
    <g transform="matrix(0.994903,0,0,1,-44.8393,-380.354)">
        <path d="M190.417,567.183C190.417,567.183 171.531,566.945 163.718,565.558C151.89,563.459 144.078,558.871 144.078,558.871C131.769,553.708 119.41,541.146 109.96,520.551C125.429,521.216 155.815,532.814 169.585,541.988C172.571,543.978 170.782,538.499 172.418,540.398C173.82,542.026 160.698,530.289 158.037,528.818C151.742,525.338 149.954,523.83 135.777,518.731C121.411,513.563 105.066,509.982 105.066,509.982C105.066,509.982 97.643,499.746 92.094,489.613C84.931,476.533 82.041,463.43 85.221,465.37C96.95,472.527 154.518,495.036 170.747,505.337C171.815,506.015 172.783,506.839 173.838,503.928C175.203,500.163 169.551,496.462 169.551,496.462L135.717,478.023C135.717,478.023 95.615,459.279 89.765,455.91C67.06,442.833 72.667,410.465 73.526,410.984C107.391,431.472 130.79,439.429 150.423,448.123C163.404,453.87 173.098,456.007 180.941,465.229C181.352,465.712 185.754,471.144 186.546,472.921C188.533,477.38 191.883,483.131 191.629,493.273C191.123,513.487 190.417,567.183 190.417,567.183Z" style="fill:white;"/>
    </g>
    <g transform="matrix(1.3207,0,0,1.32746,144.656,39.1231)">
        <g transform="matrix(1,0,0,1,1.51435,0)">
            <path d="M90.027,111.947L71.895,111.947L71.895,103.112C69.949,105.11 68.054,106.774 66.21,108.106C64.366,109.438 62.548,110.5 60.755,111.294C58.962,112.088 57.144,112.652 55.3,112.985C53.456,113.318 51.561,113.484 49.615,113.484C45.671,113.484 42.149,112.895 39.05,111.717C35.951,110.539 33.301,108.861 31.098,106.685C28.896,104.508 27.218,101.895 26.066,98.848C24.913,95.8 24.337,92.381 24.337,88.591L24.337,33.734L42.469,33.734L42.469,87.285C42.469,89.282 42.738,90.985 43.276,92.394C43.814,93.803 44.556,94.955 45.504,95.851C46.452,96.748 47.566,97.388 48.846,97.772C50.127,98.156 51.51,98.348 52.995,98.348C55.351,98.348 57.669,97.785 59.948,96.658C62.228,95.531 64.251,94.033 66.018,92.164C67.785,90.294 69.206,88.117 70.282,85.633C71.358,83.149 71.895,80.524 71.895,77.758L71.895,33.734L90.027,33.734L90.027,111.947Z" style="fill:white;fill-rule:nonzero;stroke:white;stroke-width:2.01px;"/>
        </g>
        <g transform="matrix(1,0,0,1,1.51435,0)">
            <path d="M109.158,33.734L127.29,33.734L127.29,42.953C130.671,39.112 134.218,36.359 137.931,34.694C141.645,33.029 145.474,32.197 149.418,32.197C153.413,32.197 156.985,32.786 160.136,33.964C163.286,35.142 165.949,36.82 168.126,38.997C170.303,41.174 171.98,43.786 173.158,46.833C174.336,49.881 174.925,53.274 174.925,57.013L174.925,111.947L156.793,111.947L156.793,59.933C156.793,57.935 156.512,56.168 155.948,54.632C155.385,53.095 154.617,51.789 153.643,50.713C152.67,49.638 151.518,48.831 150.186,48.293C148.854,47.755 147.446,47.486 145.96,47.486C143.553,47.486 141.222,47.986 138.969,48.985C136.715,49.983 134.73,51.315 133.014,52.98C131.298,54.645 129.915,56.565 128.865,58.742C127.815,60.919 127.29,63.186 127.29,65.542L127.29,111.947L109.158,111.947L109.158,33.734Z" style="fill:white;fill-rule:nonzero;stroke:white;stroke-width:2.01px;"/>
        </g>
        <g transform="matrix(1,0,0,1,1.51435,0)">
            <path d="M193.365,4.845L211.497,4.845L211.497,43.414C212.624,41.622 213.955,40.021 215.492,38.613C217.029,37.204 218.668,36.026 220.409,35.078C222.151,34.131 223.931,33.414 225.749,32.927C227.567,32.44 229.373,32.197 231.166,32.197C236.236,32.197 240.705,33.286 244.572,35.462C248.44,37.639 251.667,40.585 254.253,44.298C256.84,48.011 258.786,52.34 260.092,57.282C261.398,62.225 262.051,67.488 262.051,73.071C262.051,78.705 261.309,83.981 259.823,88.898C258.338,93.815 256.212,98.092 253.446,101.729C250.681,105.366 247.3,108.234 243.305,110.334C239.31,112.434 234.802,113.484 229.783,113.484C228.297,113.484 226.722,113.305 225.057,112.946C223.393,112.588 221.754,112.011 220.14,111.218C218.527,110.424 216.977,109.374 215.492,108.068C214.007,106.761 212.675,105.186 211.497,103.342L211.497,111.947L193.365,111.947L193.365,4.845ZM211.497,73.071C211.497,76.605 211.855,79.922 212.572,83.021C213.29,86.12 214.34,88.834 215.723,91.165C217.106,93.495 218.796,95.326 220.793,96.658C222.791,97.99 225.07,98.656 227.631,98.656C230.244,98.656 232.574,97.99 234.623,96.658C236.672,95.326 238.388,93.495 239.771,91.165C241.154,88.834 242.204,86.12 242.921,83.021C243.638,79.922 243.996,76.605 243.996,73.071C243.996,69.537 243.638,66.22 242.921,63.122C242.204,60.023 241.154,57.321 239.771,55.016C238.388,52.711 236.672,50.88 234.623,49.522C232.574,48.165 230.244,47.486 227.631,47.486C225.122,47.486 222.893,48.127 220.947,49.407C219.001,50.688 217.336,52.442 215.953,54.67C214.57,56.898 213.507,59.498 212.765,62.468C212.022,65.439 211.599,68.615 211.497,71.995L211.497,73.071Z" style="fill:white;fill-rule:nonzero;stroke:white;stroke-width:2.01px;"/>
        </g>
        <g transform="matrix(1,0,0,1,1.51435,0)">
            <path d="M342.109,111.947L323.977,111.947L323.977,103.112C322.031,105.11 320.136,106.774 318.292,108.106C316.448,109.438 314.629,110.5 312.837,111.294C311.044,112.088 309.226,112.652 307.382,112.985C305.538,113.318 303.643,113.484 301.696,113.484C297.752,113.484 294.231,112.895 291.132,111.717C288.033,110.539 285.382,108.861 283.18,106.685C280.977,104.508 279.3,101.895 278.148,98.848C276.995,95.8 276.419,92.381 276.419,88.591L276.419,33.734L294.551,33.734L294.551,87.285C294.551,89.282 294.82,90.985 295.358,92.394C295.895,93.803 296.638,94.955 297.586,95.851C298.533,96.748 299.647,97.388 300.928,97.772C302.208,98.156 303.591,98.348 305.077,98.348C307.433,98.348 309.751,97.785 312.03,96.658C314.309,95.531 316.332,94.033 318.1,92.164C319.867,90.294 321.288,88.117 322.364,85.633C323.439,83.149 323.977,80.524 323.977,77.758L323.977,33.734L342.109,33.734L342.109,111.947Z" style="fill:white;fill-rule:nonzero;stroke:white;stroke-width:2.01px;"/>
        </g>
        <g transform="matrix(1,0,0,1,1.51435,0)">
            <path d="M360.164,33.734L373.533,33.734L376.529,43.338C378.885,39.65 381.331,36.871 383.867,35.001C386.402,33.132 389.181,32.197 392.203,32.197C393.125,32.197 394.61,32.389 396.659,32.773C398.708,33.158 401.166,34.144 404.035,35.731L404.035,51.405C402.14,50.688 400.513,50.124 399.156,49.715C397.799,49.305 396.672,49.01 395.775,48.831C394.879,48.652 394.188,48.549 393.701,48.524C393.214,48.498 392.869,48.485 392.664,48.485C390.41,48.485 388.387,48.959 386.594,49.907C384.801,50.854 383.29,52.109 382.061,53.671C380.832,55.234 379.884,57.039 379.218,59.088C378.552,61.137 378.22,63.262 378.22,65.465L378.22,111.947L360.164,111.947L360.164,33.734Z" style="fill:white;fill-rule:nonzero;stroke:white;stroke-width:2.01px;"/>
        </g>
        <g transform="matrix(1,0,0,1,1.51435,0)">
            <path d="M475.871,111.947L457.816,111.947L457.816,103.342C456.638,105.186 455.294,106.761 453.783,108.068C452.272,109.374 450.709,110.424 449.096,111.218C447.482,112.011 445.856,112.588 444.217,112.946C442.578,113.305 441.016,113.484 439.53,113.484C434.511,113.484 430.003,112.434 426.008,110.334C422.013,108.234 418.62,105.366 415.828,101.729C413.037,98.092 410.898,93.815 409.413,88.898C407.927,83.981 407.185,78.705 407.185,73.071C407.185,67.488 407.838,62.225 409.144,57.282C410.45,52.34 412.409,48.011 415.021,44.298C417.634,40.585 420.873,37.639 424.741,35.462C428.608,33.286 433.077,32.197 438.148,32.197C439.94,32.197 441.759,32.44 443.603,32.927C445.446,33.414 447.226,34.131 448.942,35.078C450.658,36.026 452.272,37.204 453.783,38.613C455.294,40.021 456.638,41.622 457.816,43.414L457.816,4.845L475.871,4.845L475.871,111.947ZM457.816,71.995C457.714,68.615 457.291,65.439 456.548,62.468C455.806,59.498 454.743,56.898 453.36,54.67C451.977,52.442 450.3,50.688 448.328,49.407C446.356,48.127 444.115,47.486 441.605,47.486C438.993,47.486 436.675,48.165 434.652,49.522C432.629,50.88 430.925,52.711 429.542,55.016C428.16,57.321 427.11,60.023 426.392,63.122C425.675,66.22 425.317,69.537 425.317,73.071C425.317,76.605 425.675,79.922 426.392,83.021C427.11,86.12 428.16,88.834 429.542,91.165C430.925,93.495 432.629,95.326 434.652,96.658C436.675,97.99 438.993,98.656 441.605,98.656C444.217,98.656 446.522,97.99 448.52,96.658C450.517,95.326 452.208,93.495 453.591,91.165C454.973,88.834 456.023,86.12 456.741,83.021C457.458,79.922 457.816,76.605 457.816,73.071L457.816,71.995Z" style="fill:white;fill-rule:nonzero;stroke:white;stroke-width:2.01px;"/>
        </g>
        <g transform="matrix(1,0,0,1,1.51435,0)">
            <path d="M521.893,85.287L539.564,33.734L558.08,33.734L525.658,126.161C524.582,129.183 523.238,131.795 521.624,133.998C520.011,136.2 518.282,138.006 516.438,139.414C514.594,140.823 512.699,141.873 510.753,142.565C508.806,143.256 506.988,143.602 505.298,143.602C504.529,143.602 503.659,143.538 502.685,143.41C501.712,143.282 500.688,143.077 499.612,142.795C498.536,142.513 497.448,142.168 496.347,141.758C495.246,141.348 494.208,140.861 493.235,140.298L493.235,126.315C495.079,127.339 496.718,128.031 498.152,128.389C499.587,128.748 500.739,128.927 501.61,128.927C502.89,128.927 504.017,128.556 504.99,127.813C505.963,127.07 506.86,125.918 507.679,124.356C508.499,122.793 509.318,120.821 510.138,118.44C510.957,116.058 511.879,113.228 512.904,109.95C512.238,108.157 511.546,106.288 510.829,104.341C510.112,102.395 509.267,100.116 508.294,97.503C507.321,94.891 506.181,91.792 504.875,88.207C503.569,84.621 501.981,80.293 500.112,75.222C498.242,70.152 496.052,64.223 493.542,57.436C491.033,50.649 488.113,42.749 484.784,33.734L503.915,33.734L521.893,85.287Z" style="fill:white;fill-rule:nonzero;stroke:white;stroke-width:2.01px;"/>
        </g>
    </g>
</svg>
